<?xml version="1.0" encoding="utf-8" ?>
<svg xmlns="http://www.w3.org/2000/svg" xmlns:xlink="http://www.w3.org/1999/xlink" width="341" height="341">
	<path fill="#001529" transform="scale(0.666667 0.666667)" d="M0 0L0 512L512 512L512 0L0 0Z"/>
	<path fill="white" transform="scale(0.666667 0.666667)" d="M258.963 296.67L171.993 296.652C168.54 296.652 163.154 297.045 159.922 296.162C151.221 293.786 146.934 284.474 149.349 276.082C150.343 272.629 153.323 267.989 155.143 264.708L246.781 101.905C247.738 100.187 251.805 91.9224 253.052 91.2344C255.306 91.2093 257.578 91.1226 259.821 91.3756C262.551 96.6928 265.558 101.838 268.44 107.072L350.812 254.307C354.207 260.426 363.29 273.925 363.408 280.743C363.536 288.233 358.424 295.229 350.884 296.499C348.054 296.976 344.939 296.653 342.071 296.651L258.963 296.67ZM256.156 116.948C254.687 119.671 252.994 122.265 251.48 124.963L173.462 263.866C170.716 268.682 165.935 276.101 163.962 281.152C172.029 281.416 180.157 281.209 188.231 281.209L232.691 281.208C240.812 281.208 248.957 281.086 257.075 281.251C261.129 281.132 265.203 281.207 269.259 281.207L348.782 281.214C346.191 278.491 342.927 271.572 340.944 267.95L262.203 127.844C261.406 126.396 256.918 117.708 256.156 116.948Z"/>
	<path fill="white" transform="scale(0.666667 0.666667)" d="M189.025 254.49C193.471 246.227 198.09 238.043 202.751 229.899L249.537 146.67C251.736 142.839 254.081 139.019 256.038 135.061C256.663 135.617 260.662 143.162 261.438 144.551L318.145 244.512C319.838 247.435 322.659 251.638 323.699 254.72C320.122 253.987 316.132 252.048 312.725 250.626L272.27 233.193C267.158 231.006 262.037 228.888 256.98 226.573C256.589 226.386 256.168 226.258 255.758 226.118C250.779 227.842 245.968 230.336 241.115 232.405L212.845 244.549C204.943 248 197.161 251.606 189.025 254.49Z"/>
	<path fill="white" transform="scale(0.666667 0.666667)" d="M181.867 272.075C183.036 267.527 191.882 264.35 195.857 262.441C203.468 258.785 211.161 255.401 218.911 252.053C231.228 246.734 243.339 241.118 255.926 236.451C259.7 237.18 270.699 242.66 274.579 244.36L297.683 254.41C301.366 256.013 331.551 268.931 331.572 271.733C330.448 272.869 321.723 272.348 319.982 272.348L257.801 272.326C252.155 272.411 246.5 272.35 240.853 272.35L193.583 272.354C189.677 272.354 185.756 272.487 181.867 272.075Z"/>
	<path fill="white" transform="scale(0.666667 0.666667)" d="M81.8114 442.769L81.8114 353.68L65 353.68L65 343.372L111.998 343.372L111.998 353.68L95.6778 353.68L95.6778 442.769L81.8114 442.769ZM123.165 443.75C120.384 443.75 117.929 442.953 115.802 441.357C113.675 439.762 111.998 437.717 110.771 435.222C109.544 432.727 108.931 430.088 108.931 427.307C108.931 422.889 109.667 419.167 111.139 416.14C112.612 413.113 114.637 410.557 117.214 408.471C119.791 406.385 122.776 404.564 126.172 403.01C129.567 401.456 133.146 399.942 136.909 398.47L136.909 393.439C136.909 390.575 136.745 388.203 136.418 386.321C136.091 384.44 135.416 383.029 134.393 382.088C133.371 381.147 131.837 380.677 129.792 380.677C127.992 380.677 126.54 381.086 125.435 381.904C124.331 382.722 123.533 383.888 123.042 385.401C122.552 386.914 122.306 388.694 122.306 390.739L122.306 394.298L109.299 393.807C109.462 385.953 111.262 380.165 114.698 376.443C118.134 372.721 123.451 370.86 130.65 370.86C137.686 370.86 142.676 372.782 145.621 376.627C148.566 380.472 150.039 386.035 150.039 393.316L150.039 425.712C150.039 427.92 150.1 430.047 150.223 432.093C150.346 434.138 150.509 436.04 150.714 437.799C150.918 439.558 151.102 441.214 151.266 442.769L139.24 442.769C138.995 441.46 138.688 439.803 138.32 437.799C137.952 435.794 137.686 433.974 137.522 432.338C136.704 435.12 135.129 437.717 132.798 440.13C130.466 442.544 127.255 443.75 123.165 443.75ZM128.319 432.461C129.628 432.461 130.855 432.093 132 431.356C133.146 430.62 134.168 429.782 135.068 428.841C135.968 427.9 136.581 427.143 136.909 426.571L136.909 406.446C134.864 407.591 132.941 408.737 131.141 409.882C129.342 411.027 127.767 412.234 126.417 413.502C125.067 414.77 124.004 416.202 123.226 417.797C122.449 419.392 122.061 421.212 122.061 423.257C122.061 426.121 122.592 428.37 123.656 430.007C124.719 431.643 126.274 432.461 128.319 432.461ZM179.121 443.75C173.313 443.75 168.65 441.93 165.132 438.29C161.615 434.649 159.61 429.843 159.119 423.871L170.041 420.558C170.695 425.057 171.8 428.432 173.354 430.681C174.908 432.931 177.199 434.056 180.226 434.056C182.598 434.056 184.398 433.381 185.625 432.031C186.852 430.681 187.466 428.861 187.466 426.571C187.466 424.525 187.016 422.685 186.116 421.049C185.216 419.413 183.744 417.735 181.698 416.018L169.55 405.587C167.096 403.46 165.03 401.088 163.353 398.47C161.676 395.852 160.837 392.457 160.837 388.285C160.837 384.522 161.594 381.352 163.108 378.775C164.621 376.198 166.748 374.234 169.489 372.885C172.229 371.535 175.44 370.86 179.121 370.86C185.012 370.86 189.511 372.68 192.62 376.32C195.728 379.961 197.528 384.358 198.019 389.512L188.693 392.825C188.365 390.371 187.874 388.223 187.22 386.383C186.566 384.542 185.625 383.11 184.398 382.088C183.171 381.065 181.576 380.554 179.612 380.554C177.485 380.554 175.788 381.27 174.52 382.701C173.252 384.133 172.618 385.831 172.618 387.794C172.618 389.021 172.884 390.228 173.415 391.414C173.947 392.6 174.867 393.766 176.176 394.911L188.693 406.446C190.411 408 192.027 409.677 193.54 411.477C195.053 413.277 196.301 415.322 197.283 417.613C198.264 419.903 198.755 422.562 198.755 425.589C198.755 429.598 197.937 432.952 196.301 435.651C194.665 438.351 192.374 440.376 189.429 441.725C186.484 443.075 183.048 443.75 179.121 443.75ZM208.818 442.646L208.818 343.25L221.948 343.25L221.948 402.519L241.091 371.841L254.834 371.841L238.146 399.574L254.343 442.769L241.213 442.769L227.96 406.446L221.948 415.527L221.948 442.646L208.818 442.646ZM262.32 442.769L262.32 343.372L300.851 343.372L300.851 353.68L276.186 353.68L276.186 386.567L296.188 386.567L296.188 396.384L276.186 396.384L276.186 432.829L301.096 432.829L301.096 442.769L262.32 442.769ZM321.835 443.75C319.053 443.75 316.598 442.953 314.472 441.357C312.345 439.762 310.668 437.717 309.441 435.222C308.214 432.727 307.6 430.088 307.6 427.307C307.6 422.889 308.336 419.167 309.809 416.14C311.281 413.113 313.306 410.557 315.883 408.471C318.46 406.385 321.446 404.564 324.841 403.01C328.236 401.456 331.815 399.942 335.578 398.47L335.578 393.439C335.578 390.575 335.415 388.203 335.087 386.321C334.76 384.44 334.085 383.029 333.063 382.088C332.04 381.147 330.507 380.677 328.461 380.677C326.661 380.677 325.209 381.086 324.105 381.904C323 382.722 322.203 383.888 321.712 385.401C321.221 386.914 320.976 388.694 320.976 390.739L320.976 394.298L307.968 393.807C308.131 385.953 309.932 380.165 313.367 376.443C316.803 372.721 322.12 370.86 329.32 370.86C336.355 370.86 341.346 372.782 344.291 376.627C347.236 380.472 348.708 386.035 348.708 393.316L348.708 425.712C348.708 427.92 348.77 430.047 348.892 432.093C349.015 434.138 349.178 436.04 349.383 437.799C349.588 439.558 349.772 441.214 349.935 442.769L337.91 442.769C337.664 441.46 337.358 439.803 336.989 437.799C336.621 435.794 336.355 433.974 336.192 432.338C335.373 435.12 333.799 437.717 331.467 440.13C329.136 442.544 325.925 443.75 321.835 443.75ZM326.988 432.461C328.298 432.461 329.525 432.093 330.67 431.356C331.815 430.62 332.838 429.782 333.738 428.841C334.637 427.9 335.251 427.143 335.578 426.571L335.578 406.446C333.533 407.591 331.611 408.737 329.811 409.882C328.011 411.027 326.436 412.234 325.086 413.502C323.737 414.77 322.673 416.202 321.896 417.797C321.119 419.392 320.73 421.212 320.73 423.257C320.73 426.121 321.262 428.37 322.325 430.007C323.389 431.643 324.943 432.461 326.988 432.461ZM377.791 443.75C371.983 443.75 367.32 441.93 363.802 438.29C360.284 434.649 358.28 429.843 357.789 423.871L368.71 420.558C369.364 425.057 370.469 428.432 372.023 430.681C373.578 432.931 375.868 434.056 378.895 434.056C381.267 434.056 383.067 433.381 384.295 432.031C385.522 430.681 386.135 428.861 386.135 426.571C386.135 424.525 385.685 422.685 384.785 421.049C383.886 419.413 382.413 417.735 380.368 416.018L368.219 405.587C365.765 403.46 363.7 401.088 362.022 398.47C360.345 395.852 359.507 392.457 359.507 388.285C359.507 384.522 360.264 381.352 361.777 378.775C363.29 376.198 365.418 374.234 368.158 372.885C370.898 371.535 374.11 370.86 377.791 370.86C383.681 370.86 388.181 372.68 391.289 376.32C394.397 379.961 396.198 384.358 396.688 389.512L387.362 392.825C387.035 390.371 386.544 388.223 385.89 386.383C385.236 384.542 384.295 383.11 383.067 382.088C381.84 381.065 380.245 380.554 378.282 380.554C376.155 380.554 374.457 381.27 373.189 382.701C371.922 384.133 371.287 385.831 371.287 387.794C371.287 389.021 371.553 390.228 372.085 391.414C372.616 392.6 373.536 393.766 374.846 394.911L387.362 406.446C389.08 408 390.696 409.677 392.209 411.477C393.722 413.277 394.97 415.322 395.952 417.613C396.934 419.903 397.425 422.562 397.425 425.589C397.425 429.598 396.606 432.952 394.97 435.651C393.335 438.351 391.044 440.376 388.099 441.725C385.154 443.075 381.718 443.75 377.791 443.75ZM426.875 443.75C421.313 443.75 417.018 442.666 413.991 440.498C410.963 438.33 408.858 435.14 407.671 430.927C406.484 426.714 405.892 421.54 405.892 415.404L405.892 399.206C405.892 392.907 406.505 387.671 407.732 383.499C408.96 379.327 411.107 376.177 414.175 374.05C417.243 371.923 421.476 370.86 426.875 370.86C432.848 370.86 437.244 372.087 440.067 374.541C442.889 376.995 444.751 380.533 445.65 385.156C446.55 389.778 447 395.32 447 401.783L447 407.55L419.022 407.55L419.022 421.785C419.022 424.648 419.288 426.98 419.819 428.779C420.351 430.579 421.21 431.909 422.396 432.768C423.583 433.627 425.117 434.056 426.998 434.056C428.961 434.056 430.455 433.586 431.477 432.645C432.499 431.704 433.195 430.354 433.563 428.595C433.931 426.837 434.115 424.771 434.115 422.398L434.115 418.104L446.877 418.104L446.877 420.803C446.877 427.92 445.364 433.524 442.337 437.615C439.31 441.705 434.156 443.75 426.875 443.75ZM419.022 400.433L434.115 400.433L434.115 394.052C434.115 391.107 433.952 388.632 433.624 386.628C433.297 384.624 432.622 383.11 431.6 382.088C430.578 381.065 428.961 380.554 426.753 380.554C424.626 380.554 423.01 381.045 421.906 382.026C420.801 383.008 420.044 384.665 419.635 386.996C419.227 389.328 419.022 392.539 419.022 396.629L419.022 400.433Z"/>
</svg>
