<svg width="1169" height="1027" viewBox="0 0 1169 1027" fill="none" xmlns="http://www.w3.org/2000/svg">
<g clip-path="url(#clip0_20_41)">
<path d="M1072.41 690.435C1072.41 690.435 1202.14 548.713 1160.9 302.12C1119.67 55.5272 907.812 -35.3502 767.313 12.1371C626.813 59.6243 595.122 142.184 480.371 189.449C365.62 236.714 147.57 204.258 38.5321 362.911C-70.5056 521.564 68.6991 784.545 245.917 949.418C423.135 1114.29 875.36 1011.05 1072.41 690.435Z" fill="#DFDFDF"/>
<path opacity="0.8" d="M1072.41 690.435C1072.41 690.435 1202.14 548.713 1160.9 302.12C1119.67 55.5272 907.812 -35.3502 767.313 12.1371C626.813 59.6243 595.122 142.184 480.371 189.449C365.62 236.714 147.57 204.258 38.5321 362.911C-70.5056 521.564 68.6991 784.545 245.917 949.418C423.135 1114.29 875.36 1011.05 1072.41 690.435Z" fill="#D1CDE6"/>
<g clip-path="url(#clip1_20_41)">
<path d="M444.127 638.4C458.727 638.4 470.563 626.564 470.563 611.964C470.563 597.363 458.727 585.528 444.127 585.528C429.526 585.528 417.69 597.363 417.69 611.964C417.69 626.564 429.526 638.4 444.127 638.4Z" fill="#59556D"/>
<path d="M441.607 623.123L433.695 612.95L438.296 609.371L442.043 614.188L454.699 600.827L458.932 604.837L441.607 623.123Z" fill="white"/>
<path d="M949.299 370H556.299V286H949.299V370Z" fill="white"/>
<path d="M607.223 349.338C619.008 349.338 628.562 339.785 628.562 328C628.562 316.215 619.008 306.661 607.223 306.661C595.439 306.661 585.885 316.215 585.885 328C585.885 339.785 595.439 349.338 607.223 349.338Z" fill="#59556D"/>
<path d="M656.505 313.774C655.562 313.774 654.657 314.149 653.99 314.816C653.323 315.483 652.949 316.388 652.949 317.331C652.949 318.274 653.323 319.179 653.99 319.846C654.657 320.512 655.562 320.887 656.505 320.887H916.164C917.106 320.885 918.009 320.509 918.674 319.843C919.339 319.176 919.712 318.273 919.712 317.331C919.712 316.389 919.339 315.486 918.674 314.819C918.009 314.152 917.106 313.777 916.164 313.774H656.505Z" fill="#3F3D56"/>
<path d="M656.505 335.113C655.562 335.111 654.656 335.484 653.988 336.149C653.32 336.815 652.943 337.718 652.941 338.662C652.939 339.605 653.312 340.51 653.978 341.179C654.643 341.847 655.547 342.224 656.49 342.226H820.649C821.117 342.226 821.58 342.135 822.012 341.957C822.444 341.778 822.837 341.516 823.168 341.186C823.499 340.856 823.761 340.463 823.941 340.032C824.12 339.6 824.212 339.137 824.212 338.669C824.212 338.202 824.12 337.739 823.941 337.307C823.761 336.875 823.499 336.483 823.168 336.152C822.837 335.822 822.444 335.56 822.012 335.382C821.58 335.203 821.117 335.112 820.649 335.113H656.505Z" fill="#3F3D56"/>
<path d="M949.299 370H556.299V286H949.299V370ZM562.299 364H943.299V292H562.299V364Z" fill="#46425B"/>
<path d="M949.299 475H556.299V391H949.299V475Z" fill="white"/>
<path d="M607.223 454.338C619.008 454.338 628.562 444.785 628.562 433C628.562 421.215 619.008 411.661 607.223 411.661C595.439 411.661 585.885 421.215 585.885 433C585.885 444.785 595.439 454.338 607.223 454.338Z" fill="#BEB6CE"/>
<path d="M656.505 418.774C655.562 418.774 654.657 419.149 653.99 419.816C653.323 420.483 652.949 421.388 652.949 422.331C652.949 423.274 653.323 424.179 653.99 424.846C654.657 425.512 655.562 425.887 656.505 425.887H916.164C917.106 425.885 918.009 425.509 918.674 424.843C919.339 424.176 919.712 423.273 919.712 422.331C919.712 421.389 919.339 420.486 918.674 419.819C918.009 419.152 917.106 418.777 916.164 418.774H656.505Z" fill="#BEB6CE"/>
<path d="M656.505 440.113C655.562 440.111 654.656 440.484 653.988 441.149C653.32 441.815 652.943 442.718 652.941 443.662C652.939 444.605 653.312 445.51 653.978 446.179C654.643 446.847 655.547 447.224 656.49 447.226H820.649C821.117 447.226 821.58 447.135 822.012 446.957C822.444 446.778 822.837 446.516 823.168 446.186C823.499 445.856 823.761 445.463 823.941 445.032C824.12 444.6 824.212 444.137 824.212 443.669C824.212 443.202 824.12 442.739 823.941 442.307C823.761 441.875 823.499 441.483 823.168 441.152C822.837 440.822 822.444 440.56 822.012 440.382C821.58 440.203 821.117 440.112 820.649 440.113H656.505Z" fill="#BEB6CE"/>
<path d="M949.299 475H556.299V391H949.299V475ZM562.299 469H943.299V397H562.299V469Z" fill="#46425B"/>
<path d="M949.299 580H556.299V496H949.299V580Z" fill="white"/>
<path d="M607.223 559.338C619.008 559.338 628.562 549.785 628.562 538C628.562 526.215 619.008 516.662 607.223 516.662C595.439 516.662 585.885 526.215 585.885 538C585.885 549.785 595.439 559.338 607.223 559.338Z" fill="#BEB6CE"/>
<path d="M656.505 523.774C655.562 523.774 654.657 524.149 653.99 524.816C653.323 525.483 652.949 526.388 652.949 527.331C652.949 528.274 653.323 529.179 653.99 529.846C654.657 530.512 655.562 530.887 656.505 530.887H916.164C917.106 530.885 918.009 530.509 918.674 529.843C919.339 529.176 919.712 528.273 919.712 527.331C919.712 526.389 919.339 525.486 918.674 524.819C918.009 524.152 917.106 523.777 916.164 523.774H656.505Z" fill="#BEB6CE"/>
<path d="M656.505 545.113C655.562 545.111 654.656 545.484 653.988 546.149C653.32 546.815 652.943 547.718 652.941 548.662C652.939 549.605 653.312 550.51 653.978 551.179C654.643 551.847 655.547 552.224 656.49 552.226H820.649C821.117 552.226 821.58 552.135 822.012 551.957C822.444 551.778 822.837 551.516 823.168 551.186C823.499 550.856 823.761 550.463 823.941 550.032C824.12 549.6 824.212 549.137 824.212 548.669C824.212 548.202 824.12 547.739 823.941 547.307C823.761 546.875 823.499 546.483 823.168 546.152C822.837 545.822 822.444 545.56 822.012 545.382C821.58 545.203 821.117 545.112 820.649 545.113H656.505Z" fill="#BEB6CE"/>
<path d="M949.299 580H556.299V496H949.299V580ZM562.299 574H943.299V502H562.299V574Z" fill="#46425B"/>
<path d="M297.758 599.929C296.862 598.778 296.229 597.444 295.905 596.022C295.58 594.599 295.571 593.123 295.878 591.697C296.186 590.271 296.802 588.93 297.684 587.767C298.566 586.605 299.693 585.651 300.983 584.971L298.899 562.262L312.391 557.63L314.883 589.741C315.882 591.985 316.022 594.517 315.278 596.858C314.534 599.199 312.957 601.185 310.846 602.441C308.735 603.697 306.237 604.135 303.825 603.672C301.412 603.209 299.254 601.877 297.758 599.929Z" fill="#FFB8B8"/>
<path d="M312.242 469.592C312.242 469.592 321.5 450.163 329.727 456.997C337.954 463.832 318.448 521.282 318.448 521.282L315.481 577.053L299.846 575.49L295.425 521.154L312.242 469.592Z" fill="#46425B"/>
<path d="M188.056 757.047L199.662 766.442L241.423 726.146L224.294 712.28L188.056 757.047Z" fill="#FFB8B8"/>
<path d="M188.163 750.861L211.02 769.364L211.021 769.364C214.884 772.492 217.346 777.026 217.866 781.969C218.386 786.911 216.922 791.859 213.795 795.722L213.412 796.195L175.988 765.901L188.163 750.861Z" fill="#2F2E41"/>
<path d="M349.357 783.127H364.289L371.393 725.53L349.354 725.531L349.357 783.127Z" fill="#FFB8B8"/>
<path d="M345.548 778.252L374.955 778.251H374.956C379.926 778.251 384.693 780.226 388.207 783.74C391.722 787.255 393.696 792.021 393.697 796.991V797.6L345.549 797.602L345.548 778.252Z" fill="#2F2E41"/>
<path d="M375.559 513.11C375.559 513.11 403.573 547.214 397.483 581.318C391.393 615.421 386.521 640.999 386.521 640.999L376.777 717.733C376.777 717.733 380.431 738.63 375.559 744.016C375.559 744.016 382.867 756.709 369.469 761.581C356.071 766.453 348.842 759.897 348.842 759.897C348.842 759.897 339.019 745.747 345.109 742.093L347.674 591.505L250.105 718.951C250.105 718.951 248.312 734.453 235.811 734.619L220.874 745.747L203.822 736.003L212.348 725.041C212.348 725.041 207.476 712.861 218.438 710.425L281.773 627.601L297.607 584.972C297.607 584.972 306.133 552.086 329.275 538.688V524.432L375.559 513.11Z" fill="#2F2E41"/>
<path d="M327.448 454.037C331.136 449.679 336.298 446.829 341.951 446.031C347.604 445.233 353.354 446.542 358.104 449.709L359.116 450.383C369.927 462.627 377.193 477.587 380.132 493.654L384.694 518.591L327.448 530.991L314.028 484.707C312.324 478.833 312.734 472.547 315.186 466.943C317.638 461.34 321.977 456.773 327.448 454.037Z" fill="#46425B"/>
<path d="M421.499 605.231C419.912 604.712 418.458 603.852 417.24 602.71C416.021 601.569 415.068 600.174 414.446 598.624C413.825 597.074 413.551 595.407 413.644 593.74C413.737 592.073 414.194 590.447 414.984 588.975L398.47 568.765L408.305 555.734L431.224 584.603C433.608 586.093 435.362 588.405 436.155 591.102C436.947 593.8 436.723 596.694 435.524 599.236C434.325 601.779 432.236 603.794 429.651 604.899C427.066 606.004 424.165 606.122 421.499 605.231Z" fill="#FFB8B8"/>
<path d="M351.808 472.307C351.808 472.307 348.154 447.947 360.334 449.165C372.514 450.383 390.784 517.373 390.784 517.373L423.669 572.183L407.836 580.709L368.86 531.989L351.808 472.307Z" fill="#46425B"/>
<path d="M374.112 436.694H316.112C314.919 436.693 313.775 436.218 312.932 435.375C312.088 434.531 311.614 433.387 311.612 432.194V407.194C311.612 398.309 315.142 389.789 321.424 383.506C327.707 377.224 336.227 373.694 345.112 373.694C353.997 373.694 362.518 377.224 368.8 383.506C375.083 389.789 378.612 398.309 378.612 407.194V432.194C378.611 433.387 378.136 434.531 377.293 435.375C376.449 436.218 375.305 436.693 374.112 436.694Z" fill="#2F2E41"/>
<path d="M351.996 436.112C365.561 436.112 376.557 425.116 376.557 411.551C376.557 397.987 365.561 386.99 351.996 386.99C338.431 386.99 327.435 397.987 327.435 411.551C327.435 425.116 338.431 436.112 351.996 436.112Z" fill="#FFB8B8"/>
<path d="M386.538 409.694H355.628L355.311 404.602L353.726 409.694H348.967L348.339 399.602L345.198 409.694H335.988V409.194C335.988 394.582 346.349 382.694 359.084 382.694H363.442C376.177 382.694 386.538 394.582 386.538 409.194V409.694Z" fill="#2F2E41"/>
<path d="M356.907 441.361C356.529 441.361 356.152 441.332 355.779 441.274L318.988 435.607V397.287C318.988 393.373 320.543 389.619 323.311 386.851C326.079 384.083 329.833 382.528 333.748 382.528H359.488L358.485 383.548C344.534 397.751 355.044 420.781 362.551 433.245C363.102 434.141 363.351 435.19 363.261 436.238C363.171 437.286 362.747 438.277 362.052 439.066C361.413 439.8 360.622 440.386 359.733 440.782C358.844 441.179 357.88 441.376 356.907 441.361Z" fill="#2F2E41"/>
<path d="M1002.13 354.4C1016.73 354.4 1028.56 342.564 1028.56 327.964C1028.56 313.364 1016.73 301.528 1002.13 301.528C987.526 301.528 975.69 313.364 975.69 327.964C975.69 342.564 987.526 354.4 1002.13 354.4Z" fill="#59556D"/>
<path d="M999.607 339.123L991.695 328.95L996.296 325.371L1000.04 330.188L1012.7 316.827L1016.93 320.837L999.607 339.123Z" fill="white"/>
</g>
</g>
<defs>
<clipPath id="clip0_20_41">
<rect width="1169" height="1027" fill="white"/>
</clipPath>
<clipPath id="clip1_20_41">
<rect width="931.563" height="512.801" fill="white" transform="translate(97 286)"/>
</clipPath>
</defs>
</svg>
